<svg xmlns="http://www.w3.org/2000/svg" version="1.1" xmlns:xlink="http://www.w3.org/1999/xlink" xmlns:svgjs="http://svgjs.dev/svgjs" viewBox="0 0 800 800" opacity="0.1"><g stroke-width="2" stroke="hsl(199, 33%, 82%)" fill="none"><path d="M752.3918368684951 383.49631795622486C763.0772188799756 571.6779275397985 899.7299967356826 784.105733286287 830.5255547528943 848.077360617471C761.3211127701061 912.0489879486549 545.8936855146776 752.8527971684243 420.2105153511129 690.5601291459088C294.52734518754824 628.2674611233933 324.4493061449689 650.2072105297943 227.24633796778483 549.0725541093952C130.04336979060088 447.93789768899603 -80.14344541108431 288.72100162504364 -46.36373189937018 205.11377832799212C-12.584018387656101 121.5065550309406 217.38907678293822 201.98874555681277 389.38896282401254 147.75788228354736C561.3888488650869 93.52701901028189 703.6101223385194 -104.30653948215735 779.2357210977866 -55.194365383682566C854.861319857054 -6.082191285207841 741.7064548570145 195.31470837265147 752.3918368684951 383.49631795622486C763.0772188799756 571.6779275397985 899.7299967356826 784.105733286287 830.5255547528943 848.077360617471 "></path><path d="M634.9279115907154 388.9975758217281C642.0514995983691 514.4519822107773 733.1533515021737 656.0705193751029 687.0170568469816 698.7182709292256C640.8807621917896 741.3660224833482 497.2624773548371 635.2352286298611 413.473697245794 593.7067832815176C329.684917136751 552.1783379331738 349.6328911083647 566.8048375374411 284.8309123235754 499.38173325717503C220.02893353878596 431.9586289769088 79.90439007099587 325.81403160094055 102.42419907880526 270.0758827362396C124.9440080866147 214.3377338715385 278.25940486701097 267.9925275554533 392.9259955610605 231.83861870660974C507.59258625510995 195.68470985776605 602.4067685707316 63.79567086280656 652.8238344102432 96.53712026178977C703.2409002497548 129.27856966077292 627.8043235830618 263.54316943267906 634.9279115907154 388.9975758217281C642.0514995983691 514.4519822107773 733.1533515021737 656.0705193751029 687.0170568469816 698.7182709292256 "></path><path d="M576.1959184342476 391.74815897811243C581.5386094399878 485.83896376989924 649.8649983678413 592.0528666431435 615.2627773764472 624.0386803087355C580.660556385053 656.0244939743275 472.9468427573388 576.4263985842122 410.10525767555646 545.2800645729544C347.2636725937741 514.1337305616967 362.22465307248444 525.1036052648972 313.6231689838924 474.5362770546976C265.02168489530044 423.9689488444981 159.92827729445787 344.3605008125219 176.81813405031488 302.55688916399606C193.70799080617195 260.7532775154703 308.6945383914691 300.9943727784064 394.6944814120063 273.8789411417737C480.6944244325434 246.76350950514097 551.8050611692597 147.84673025892135 589.6178605488933 172.40281730815872C627.430659928527 196.95890435739608 570.8532274285072 297.65735418632573 576.1959184342476 391.74815897811243C581.5386094399878 485.83896376989924 649.8649983678413 592.0528666431435 615.2627773764472 624.0386803087355 "></path><path d="M517.4639252777796 394.498772652075C521.0257192816064 457.22597584659957 566.5766452335088 528.0352444287623 543.5084979059127 549.3591202058237C520.4403505783166 570.682995982885 448.6312081598404 517.6175990561414 406.7368181053189 496.8533763819697C364.84242805079737 476.0891537077978 374.8164150366042 483.40240350993145 342.41542564420956 449.69085136979845C310.01443625181486 415.97929922966534 239.9521645179198 362.9070005416812 251.2120690218245 335.0379261093307C262.4719735257292 307.1688516769802 339.12967191592736 333.9962485189376 396.46296726295213 315.9192940945158C453.7962626099768 297.84233967009396 501.2033537677877 231.89782017261422 526.4118866875435 248.2685448721058C551.6204196072993 264.6392695715974 513.9021312739528 331.77156945755047 517.4639252777796 394.498772652075C521.0257192816064 457.22597584659957 566.5766452335088 528.0352444287623 543.5084979059127 549.3591202058237 "></path></g></svg>